<svg xmlns="http://www.w3.org/2000/svg" xmlns:xlink="http://www.w3.org/1999/xlink" width="3000" zoomAndPan="magnify" viewBox="0 0 2250 1124.99995" height="1500" preserveAspectRatio="xMidYMid meet" version="1.0"><defs><g/><clipPath id="f303ac24d5"><path d="M 373 601 L 971.179688 601 L 971.179688 964 L 373 964 Z M 373 601 " clip-rule="nonzero"/></clipPath><clipPath id="03991ea2ab"><path d="M 121.429688 120 L 904 120 L 904 1004.851562 L 121.429688 1004.851562 Z M 121.429688 120 " clip-rule="nonzero"/></clipPath><clipPath id="f550954646"><rect x="0" width="1364" y="0" height="94"/></clipPath></defs><g clip-path="url(#f303ac24d5)"><path fill="#000000" d="M 809.457031 815.054688 C 836.035156 768.585938 851.226562 714.769531 851.226562 657.414062 C 851.226562 638.453125 849.5625 619.886719 846.382812 601.847656 C 833.507812 673.402344 795.46875 736.226562 741.730469 780.78125 C 710.640625 806.5625 664.355469 801.335938 640.023438 769.09375 L 594.613281 708.925781 C 587.0625 698.914062 575.246094 693.03125 562.707031 693.03125 L 389.679688 693.03125 C 389.640625 693.03125 389.605469 693.039062 389.566406 693.039062 C 377.757812 693.121094 370.105469 705.570312 375.414062 716.148438 L 382.300781 729.859375 C 395.105469 755.367188 420.3125 772.316406 448.757812 774.558594 L 459.011719 775.363281 L 503.878906 778.898438 C 516.582031 779.902344 528.03125 786.925781 534.679688 797.796875 L 555.03125 831.078125 L 566.425781 849.714844 L 630.253906 954.117188 C 631.390625 955.984375 632.8125 957.613281 634.4375 958.96875 C 639.113281 962.878906 645.449219 964.511719 651.597656 962.996094 C 651.644531 962.980469 651.6875 962.96875 651.734375 962.960938 C 817.300781 922.097656 944.847656 784.757812 971.328125 614 C 948.082031 701.597656 888.390625 774.367188 809.457031 815.054688 " fill-opacity="1" fill-rule="nonzero"/></g><g clip-path="url(#03991ea2ab)"><path fill="#034bae" d="M 522.46875 805.261719 C 518.230469 798.324219 510.859375 793.804688 502.757812 793.164062 L 447.632812 788.820312 C 414.402344 786.207031 384.46875 766.078125 369.511719 736.289062 L 362.992188 723.296875 C 358.351562 714.0625 358.246094 703.015625 363.363281 694.03125 C 368.648438 684.765625 378.167969 679.066406 388.730469 678.742188 L 389.679688 678.71875 L 445.078125 678.71875 C 427.015625 650.210938 394.472656 634.175781 360.785156 637.324219 L 303.21875 642.699219 C 278.5625 645.003906 256.402344 628.003906 251.863281 603.660156 C 248.5 585.621094 246.738281 567.007812 246.738281 547.984375 C 246.738281 451.542969 291.90625 365.652344 362.242188 310.3125 C 292.5625 356.195312 238.332031 423.625 209.074219 503.140625 C 235.4375 311.601562 399.734375 164.0625 598.519531 164.0625 C 721.570312 164.0625 831.402344 220.601562 903.492188 309.105469 C 826.882812 195.644531 697.238281 120.933594 550.117188 120.550781 C 314.617188 119.941406 121.894531 311.832031 121.542969 547.339844 C 121.421875 630.242188 144.929688 707.636719 185.667969 773.207031 C 186.527344 774.59375 187.375 775.980469 188.25 777.359375 L 245.304688 767.6875 C 270.792969 763.375 291.769531 788.011719 283.105469 812.371094 C 282.863281 813.039062 282.710938 813.40625 282.710938 813.40625 C 319.445312 826.761719 313.242188 862.542969 313.242188 862.542969 C 345.683594 877.335938 332.328125 907.863281 332.328125 907.863281 C 343.796875 912.609375 347.816406 921.878906 348.855469 924.910156 C 349.386719 926.457031 349.972656 927.988281 350.566406 929.519531 L 372.753906 986.445312 C 376.566406 996.234375 388.28125 1004.242188 398.789062 1004.242188 C 412.046875 1004.242188 421.21875 990.996094 416.558594 978.582031 L 406.171875 950.945312 L 392.324219 914.082031 C 391.355469 911.503906 393.113281 908.683594 395.917969 908.480469 C 397.75 908.34375 399.425781 909.542969 400.128906 911.242188 L 418.328125 955.054688 L 431.800781 987.492188 C 436.4375 998.652344 448.683594 1005.0625 460.289062 1001.671875 C 474.199219 997.609375 481.121094 982.039062 474.835938 968.992188 C 474.832031 968.984375 474.828125 968.972656 474.820312 968.957031 L 441.496094 900.117188 C 440.066406 897.164062 442.019531 893.691406 445.285156 893.378906 C 447.175781 893.195312 448.992188 894.167969 449.890625 895.835938 L 490.445312 971.414062 L 495.472656 980.785156 C 500.429688 990.023438 511.289062 994.839844 521.242188 991.546875 C 528.984375 988.984375 534.140625 982.507812 535.507812 975.1875 C 536.339844 970.722656 535.769531 965.949219 533.496094 961.550781 L 501.761719 900.042969 C 500.367188 897.335938 501.390625 893.867188 504.207031 892.699219 C 506.699219 891.664062 509.488281 892.730469 510.714844 895.03125 L 546.578125 962.785156 C 549.476562 968.257812 553.796875 972.503906 558.847656 975.304688 C 567.25 979.96875 577.679688 980.628906 586.980469 976.238281 C 588.773438 975.398438 590.417969 974.375 591.957031 973.261719 C 604.671875 964.027344 608.660156 946.25 600.132812 932.292969 L 522.46875 805.261719 " fill-opacity="1" fill-rule="nonzero"/></g><path fill="#000000" d="M 212.402344 830.953125 L 257.28125 823.507812 C 270.746094 821.269531 279.851562 808.546875 277.621094 795.078125 C 275.386719 781.609375 262.65625 772.5 249.1875 774.734375 L 204.308594 782.183594 C 190.839844 784.414062 181.734375 797.144531 183.96875 810.609375 C 186.203125 824.078125 198.933594 833.183594 212.402344 830.953125 " fill-opacity="1" fill-rule="nonzero"/><path fill="#000000" d="M 300.519531 843.734375 C 298.285156 830.265625 285.554688 821.160156 272.085938 823.398438 L 210.828125 835.105469 C 197.359375 837.34375 188.253906 850.066406 190.488281 863.53125 C 192.722656 877 205.449219 886.113281 218.917969 883.875 L 280.179688 872.167969 C 293.648438 869.929688 302.75 857.199219 300.519531 843.734375 " fill-opacity="1" fill-rule="nonzero"/><path fill="#000000" d="M 321.191406 894.621094 C 318.953125 881.148438 306.226562 872.042969 292.761719 874.28125 L 247.878906 881.722656 C 234.410156 883.957031 225.304688 896.6875 227.539062 910.15625 C 229.773438 923.621094 242.503906 932.726562 255.96875 930.496094 L 300.847656 923.050781 C 314.316406 920.8125 323.425781 908.089844 321.191406 894.621094 " fill-opacity="1" fill-rule="nonzero"/><path fill="#000000" d="M 323.925781 921.988281 L 287.070312 927.855469 C 273.601562 930.085938 264.496094 942.816406 266.730469 956.285156 C 268.964844 969.75 281.695312 978.855469 295.160156 976.625 L 332.019531 970.757812 C 345.484375 968.523438 354.589844 955.792969 352.355469 942.324219 C 350.125 928.855469 337.394531 919.753906 323.925781 921.988281 " fill-opacity="1" fill-rule="nonzero"/><g transform="matrix(1, 0, 0, 1, 338, 460)"><g clip-path="url(#f550954646)"><g fill="#034bae" fill-opacity="1"><g transform="translate(1.980622, 62.661441)"><g><path d="M 46.75 -58.4375 C 47.457031 -58.4375 48.117188 -58.566406 48.734375 -58.828125 C 49.359375 -59.097656 49.847656 -59.554688 50.203125 -60.203125 L 54.265625 -43.46875 L 53.5625 -43.203125 C 52.738281 -45.035156 51.660156 -46.671875 50.328125 -48.109375 C 49.003906 -49.554688 47.5 -50.78125 45.8125 -51.78125 C 44.132812 -52.789062 42.304688 -53.546875 40.328125 -54.046875 C 38.347656 -54.546875 36.296875 -54.796875 34.171875 -54.796875 C 30.691406 -54.796875 27.84375 -54.304688 25.625 -53.328125 C 23.414062 -52.359375 21.546875 -51.019531 20.015625 -49.3125 C 17.765625 -46.832031 16.195312 -44.070312 15.3125 -41.03125 C 14.425781 -37.988281 13.984375 -35.203125 13.984375 -32.671875 C 13.984375 -28.828125 14.617188 -25.132812 15.890625 -21.59375 C 17.160156 -18.0625 18.945312 -14.953125 21.25 -12.265625 C 23.550781 -9.578125 26.335938 -7.4375 29.609375 -5.84375 C 32.890625 -4.25 36.566406 -3.453125 40.640625 -3.453125 C 45.066406 -3.453125 48.898438 -4.644531 52.140625 -7.03125 C 55.390625 -9.425781 58.019531 -12.75 60.03125 -17 L 60.203125 -17.265625 L 61.09375 -16.90625 L 54.265625 0.890625 C 53.734375 0.648438 53.144531 0.53125 52.5 0.53125 C 51.851562 0.53125 51.144531 0.554688 50.375 0.609375 C 49.601562 0.671875 48.804688 0.734375 47.984375 0.796875 C 46.984375 0.910156 45.863281 1 44.625 1.0625 C 43.382812 1.125 42.023438 1.15625 40.546875 1.15625 C 33.640625 1.15625 27.828125 0.140625 23.109375 -1.890625 C 18.390625 -3.929688 14.566406 -6.5625 11.640625 -9.78125 C 8.722656 -13 6.613281 -16.566406 5.3125 -20.484375 C 4.007812 -24.410156 3.359375 -28.265625 3.359375 -32.046875 C 3.359375 -35.585938 3.921875 -39.007812 5.046875 -42.3125 C 6.171875 -45.625 7.972656 -48.53125 10.453125 -51.03125 C 12.929688 -53.539062 16.113281 -55.5625 20 -57.09375 C 23.894531 -58.632812 28.585938 -59.40625 34.078125 -59.40625 C 36.796875 -59.40625 39.203125 -59.242188 41.296875 -58.921875 C 43.390625 -58.597656 45.207031 -58.4375 46.75 -58.4375 Z M 46.75 -58.4375 "/></g></g></g><g fill="#034bae" fill-opacity="1"><g transform="translate(108.216547, 62.661441)"><g><path d="M 24.4375 -58.25 L 24.4375 -57.453125 C 23.195312 -57.335938 22.191406 -57.015625 21.421875 -56.484375 C 20.660156 -55.953125 20.070312 -55.285156 19.65625 -54.484375 C 19.238281 -53.691406 18.972656 -52.765625 18.859375 -51.703125 C 18.742188 -50.640625 18.6875 -49.488281 18.6875 -48.25 L 18.6875 -42.046875 L 45.0625 -42.046875 L 45.0625 -46.65625 C 45.0625 -48.1875 45 -49.585938 44.875 -50.859375 C 44.757812 -52.128906 44.507812 -53.234375 44.125 -54.171875 C 43.75 -55.117188 43.175781 -55.875 42.40625 -56.4375 C 41.632812 -57 40.601562 -57.335938 39.3125 -57.453125 L 39.3125 -58.25 L 60.5625 -58.25 L 60.5625 -57.453125 C 59.320312 -57.273438 58.316406 -56.9375 57.546875 -56.4375 C 56.773438 -55.9375 56.179688 -55.269531 55.765625 -54.4375 C 55.359375 -53.613281 55.09375 -52.6875 54.96875 -51.65625 C 54.851562 -50.625 54.796875 -49.488281 54.796875 -48.25 L 54.796875 -10.625 C 54.796875 -9.320312 54.867188 -8.109375 55.015625 -6.984375 C 55.171875 -5.867188 55.4375 -4.867188 55.8125 -3.984375 C 56.195312 -3.097656 56.773438 -2.390625 57.546875 -1.859375 C 58.316406 -1.328125 59.320312 -0.972656 60.5625 -0.796875 L 60.5625 0 L 39.3125 0 L 39.3125 -0.796875 C 40.550781 -0.910156 41.550781 -1.21875 42.3125 -1.71875 C 43.082031 -2.226562 43.671875 -2.878906 44.078125 -3.671875 C 44.492188 -4.472656 44.757812 -5.40625 44.875 -6.46875 C 45 -7.53125 45.0625 -8.707031 45.0625 -10 L 45.0625 -37.796875 L 18.6875 -37.796875 L 18.6875 -10.625 C 18.6875 -9.382812 18.742188 -8.1875 18.859375 -7.03125 C 18.972656 -5.882812 19.238281 -4.867188 19.65625 -3.984375 C 20.070312 -3.097656 20.660156 -2.375 21.421875 -1.8125 C 22.191406 -1.25 23.195312 -0.910156 24.4375 -0.796875 L 24.4375 0 L 3.1875 0 L 3.1875 -0.796875 C 4.488281 -0.972656 5.519531 -1.34375 6.28125 -1.90625 C 7.050781 -2.46875 7.628906 -3.175781 8.015625 -4.03125 C 8.398438 -4.882812 8.648438 -5.828125 8.765625 -6.859375 C 8.878906 -7.890625 8.9375 -8.96875 8.9375 -10.09375 L 8.9375 -47.625 C 8.9375 -48.8125 8.878906 -49.960938 8.765625 -51.078125 C 8.648438 -52.203125 8.382812 -53.207031 7.96875 -54.09375 C 7.550781 -54.976562 6.972656 -55.710938 6.234375 -56.296875 C 5.503906 -56.890625 4.488281 -57.273438 3.1875 -57.453125 L 3.1875 -58.25 Z M 24.4375 -58.25 "/></g></g></g><g fill="#000000" fill-opacity="1"><g transform="translate(216.250869, 62.661441)"><g><path d="M 25.140625 -54.1875 C 23.785156 -54.1875 22.691406 -54.097656 21.859375 -53.921875 C 21.035156 -53.742188 20.390625 -53.359375 19.921875 -52.765625 C 19.453125 -52.171875 19.128906 -51.328125 18.953125 -50.234375 C 18.773438 -49.148438 18.6875 -47.632812 18.6875 -45.6875 L 18.6875 -14.875 C 18.6875 -12.394531 18.832031 -10.429688 19.125 -8.984375 C 19.414062 -7.535156 19.914062 -6.457031 20.625 -5.75 C 21.332031 -5.039062 22.257812 -4.582031 23.40625 -4.375 C 24.5625 -4.175781 25.992188 -4.078125 27.703125 -4.078125 C 31.304688 -4.078125 34.453125 -4.609375 37.140625 -5.671875 C 39.828125 -6.734375 42.082031 -8.238281 43.90625 -10.1875 C 45.738281 -12.132812 47.113281 -14.492188 48.03125 -17.265625 C 48.945312 -20.035156 49.40625 -23.132812 49.40625 -26.5625 C 49.40625 -29.976562 48.914062 -33.335938 47.9375 -36.640625 C 46.96875 -39.953125 45.476562 -42.90625 43.46875 -45.5 C 41.457031 -48.101562 38.929688 -50.203125 35.890625 -51.796875 C 32.859375 -53.390625 29.273438 -54.1875 25.140625 -54.1875 Z M 24.875 -58.25 C 30.601562 -58.25 35.328125 -57.582031 39.046875 -56.25 C 42.765625 -54.925781 45.953125 -53.175781 48.609375 -51 C 50.785156 -49.226562 52.613281 -47.289062 54.09375 -45.1875 C 55.570312 -43.09375 56.753906 -41 57.640625 -38.90625 C 58.523438 -36.8125 59.144531 -34.742188 59.5 -32.703125 C 59.851562 -30.671875 60.03125 -28.828125 60.03125 -27.171875 C 60.03125 -25.878906 59.910156 -24.375 59.671875 -22.65625 C 59.429688 -20.945312 58.972656 -19.148438 58.296875 -17.265625 C 57.617188 -15.378906 56.71875 -13.503906 55.59375 -11.640625 C 54.476562 -9.785156 53.035156 -8.085938 51.265625 -6.546875 C 49.847656 -5.304688 48.398438 -4.273438 46.921875 -3.453125 C 45.441406 -2.628906 43.832031 -1.953125 42.09375 -1.421875 C 40.351562 -0.890625 38.4375 -0.519531 36.34375 -0.3125 C 34.25 -0.101562 31.875 0 29.21875 0 L 3.1875 0 L 3.1875 -0.796875 C 4.425781 -0.972656 5.425781 -1.328125 6.1875 -1.859375 C 6.957031 -2.390625 7.550781 -3.050781 7.96875 -3.84375 C 8.382812 -4.644531 8.648438 -5.578125 8.765625 -6.640625 C 8.878906 -7.703125 8.9375 -8.851562 8.9375 -10.09375 L 8.9375 -47.625 C 8.9375 -48.8125 8.878906 -49.945312 8.765625 -51.03125 C 8.648438 -52.125 8.382812 -53.113281 7.96875 -54 C 7.550781 -54.882812 6.972656 -55.632812 6.234375 -56.25 C 5.503906 -56.875 4.488281 -57.273438 3.1875 -57.453125 L 3.1875 -58.25 Z M 24.875 -58.25 "/></g></g></g><g fill="#000000" fill-opacity="1"><g transform="translate(324.257434, 62.661441)"><g><path d="M 24.78125 -58.25 L 24.78125 -57.453125 C 23.539062 -57.273438 22.535156 -56.921875 21.765625 -56.390625 C 21.003906 -55.859375 20.414062 -55.191406 20 -54.390625 C 19.59375 -53.597656 19.328125 -52.671875 19.203125 -51.609375 C 19.085938 -50.546875 19.03125 -49.394531 19.03125 -48.15625 L 19.03125 -10.625 C 19.03125 -9.445312 19.085938 -8.296875 19.203125 -7.171875 C 19.328125 -6.046875 19.582031 -5.039062 19.96875 -4.15625 C 20.351562 -3.269531 20.925781 -2.53125 21.6875 -1.9375 C 22.457031 -1.351562 23.488281 -0.972656 24.78125 -0.796875 L 24.78125 0 L 3.546875 0 L 3.546875 -0.796875 C 4.835938 -0.972656 5.851562 -1.328125 6.59375 -1.859375 C 7.332031 -2.390625 7.90625 -3.050781 8.3125 -3.84375 C 8.726562 -4.644531 8.992188 -5.5625 9.109375 -6.59375 C 9.234375 -7.625 9.296875 -8.757812 9.296875 -10 L 9.296875 -47.625 C 9.296875 -48.8125 9.234375 -49.960938 9.109375 -51.078125 C 8.992188 -52.203125 8.726562 -53.207031 8.3125 -54.09375 C 7.90625 -54.976562 7.332031 -55.710938 6.59375 -56.296875 C 5.851562 -56.890625 4.835938 -57.273438 3.546875 -57.453125 L 3.546875 -58.25 Z M 24.78125 -58.25 "/></g></g></g><g fill="#000000" fill-opacity="1"><g transform="translate(396.852, 62.661441)"><g><path d="M 5.3125 -44.890625 C 5.3125 -47.484375 5.867188 -49.707031 6.984375 -51.5625 C 8.109375 -53.425781 9.554688 -54.960938 11.328125 -56.171875 C 13.097656 -57.378906 15.0625 -58.265625 17.21875 -58.828125 C 19.375 -59.390625 21.453125 -59.671875 23.453125 -59.671875 C 25.285156 -59.671875 26.910156 -59.535156 28.328125 -59.265625 C 29.742188 -59.003906 31.101562 -58.726562 32.40625 -58.4375 C 33.289062 -58.195312 34.273438 -57.972656 35.359375 -57.765625 C 36.453125 -57.554688 37.59375 -57.453125 38.78125 -57.453125 C 39.539062 -57.453125 40.15625 -57.570312 40.625 -57.8125 C 41.101562 -58.050781 41.578125 -58.460938 42.046875 -59.046875 L 45.59375 -41.4375 L 44.890625 -41.25 C 44.179688 -43.320312 43.160156 -45.179688 41.828125 -46.828125 C 40.503906 -48.484375 38.96875 -49.898438 37.21875 -51.078125 C 35.476562 -52.265625 33.585938 -53.179688 31.546875 -53.828125 C 29.515625 -54.472656 27.4375 -54.796875 25.3125 -54.796875 C 24.070312 -54.796875 22.789062 -54.675781 21.46875 -54.4375 C 20.144531 -54.207031 18.953125 -53.8125 17.890625 -53.25 C 16.828125 -52.6875 15.941406 -51.929688 15.234375 -50.984375 C 14.523438 -50.046875 14.171875 -48.867188 14.171875 -47.453125 C 14.171875 -46.859375 14.269531 -46.296875 14.46875 -45.765625 C 14.675781 -45.234375 15.117188 -44.703125 15.796875 -44.171875 C 16.484375 -43.640625 17.414062 -43.109375 18.59375 -42.578125 C 19.769531 -42.046875 21.332031 -41.488281 23.28125 -40.90625 L 35.9375 -37.09375 C 38.1875 -36.382812 40.285156 -35.515625 42.234375 -34.484375 C 44.179688 -33.453125 45.863281 -32.226562 47.28125 -30.8125 C 48.695312 -29.394531 49.800781 -27.769531 50.59375 -25.9375 C 51.394531 -24.101562 51.796875 -22.039062 51.796875 -19.75 C 51.796875 -16.320312 51.234375 -13.304688 50.109375 -10.703125 C 48.984375 -8.109375 47.390625 -5.925781 45.328125 -4.15625 C 43.265625 -2.382812 40.753906 -1.054688 37.796875 -0.171875 C 34.847656 0.710938 31.546875 1.15625 27.890625 1.15625 C 25.992188 1.15625 24.234375 1.003906 22.609375 0.703125 C 20.992188 0.410156 19.476562 0.0859375 18.0625 -0.265625 C 16.644531 -0.617188 15.332031 -0.941406 14.125 -1.234375 C 12.914062 -1.535156 11.78125 -1.6875 10.71875 -1.6875 C 10.0625 -1.6875 9.46875 -1.519531 8.9375 -1.1875 C 8.40625 -0.863281 7.992188 -0.5 7.703125 -0.09375 L 2.5625 -22.21875 L 3.359375 -22.484375 C 4.128906 -19.953125 5.207031 -17.5625 6.59375 -15.3125 C 7.976562 -13.070312 9.644531 -11.109375 11.59375 -9.421875 C 13.539062 -7.742188 15.738281 -6.414062 18.1875 -5.4375 C 20.644531 -4.46875 23.316406 -3.984375 26.203125 -3.984375 C 31.691406 -3.984375 35.851562 -5.015625 38.6875 -7.078125 C 41.519531 -9.148438 42.9375 -12.191406 42.9375 -16.203125 C 42.9375 -18.035156 42.566406 -19.582031 41.828125 -20.84375 C 41.085938 -22.113281 40.128906 -23.160156 38.953125 -23.984375 C 37.773438 -24.816406 36.429688 -25.507812 34.921875 -26.0625 C 33.421875 -26.625 31.929688 -27.144531 30.453125 -27.625 L 18.6875 -31.25 C 17.03125 -31.78125 15.40625 -32.367188 13.8125 -33.015625 C 12.21875 -33.671875 10.785156 -34.515625 9.515625 -35.546875 C 8.242188 -36.578125 7.222656 -37.84375 6.453125 -39.34375 C 5.691406 -40.851562 5.3125 -42.703125 5.3125 -44.890625 Z M 5.3125 -44.890625 "/></g></g></g><g fill="#000000" fill-opacity="1"><g transform="translate(496.005565, 62.661441)"><g><path d="M 3.359375 -59.40625 C 3.421875 -59.34375 3.507812 -59.253906 3.625 -59.140625 C 3.75 -59.023438 3.941406 -58.890625 4.203125 -58.734375 C 4.472656 -58.585938 4.882812 -58.46875 5.4375 -58.375 C 6 -58.289062 6.785156 -58.25 7.796875 -58.25 L 43.203125 -58.25 C 44.085938 -58.25 44.796875 -58.28125 45.328125 -58.34375 C 45.859375 -58.40625 46.285156 -58.492188 46.609375 -58.609375 C 46.929688 -58.722656 47.179688 -58.835938 47.359375 -58.953125 C 47.535156 -59.078125 47.6875 -59.226562 47.8125 -59.40625 L 52.140625 -41.875 L 51.34375 -41.609375 C 49.632812 -45.859375 47.113281 -48.925781 43.78125 -50.8125 C 40.445312 -52.707031 36.003906 -53.65625 30.453125 -53.65625 L 30.453125 -10.453125 C 30.453125 -7.617188 30.789062 -5.328125 31.46875 -3.578125 C 32.144531 -1.835938 33.722656 -0.910156 36.203125 -0.796875 L 36.203125 0 L 14.96875 0 L 14.96875 -0.796875 C 16.207031 -0.859375 17.207031 -1.109375 17.96875 -1.546875 C 18.738281 -1.992188 19.328125 -2.613281 19.734375 -3.40625 C 20.148438 -4.207031 20.414062 -5.148438 20.53125 -6.234375 C 20.65625 -7.328125 20.71875 -8.554688 20.71875 -9.921875 L 20.71875 -53.65625 C 15.519531 -53.65625 11.164062 -52.753906 7.65625 -50.953125 C 4.144531 -49.148438 1.535156 -46.035156 -0.171875 -41.609375 L -0.96875 -41.875 Z M 3.359375 -59.40625 "/></g></g></g><g fill="#000000" fill-opacity="1"><g transform="translate(591.617917, 62.661441)"><g><path d="M 29.484375 -54.1875 C 26.117188 -54.1875 23.582031 -53.945312 21.875 -53.46875 C 21.164062 -53.289062 20.601562 -53.054688 20.1875 -52.765625 C 19.769531 -52.472656 19.441406 -52.03125 19.203125 -51.4375 C 18.972656 -50.84375 18.8125 -50.054688 18.71875 -49.078125 C 18.632812 -48.109375 18.59375 -46.828125 18.59375 -45.234375 L 18.59375 -31.609375 C 20.363281 -32.078125 22.488281 -32.78125 24.96875 -33.71875 C 27.445312 -34.664062 29.835938 -35.800781 32.140625 -37.125 C 34.441406 -38.457031 36.398438 -39.960938 38.015625 -41.640625 C 39.640625 -43.328125 40.453125 -45.175781 40.453125 -47.1875 C 40.453125 -48.84375 40.128906 -50.140625 39.484375 -51.078125 C 38.835938 -52.023438 37.984375 -52.71875 36.921875 -53.15625 C 35.859375 -53.601562 34.675781 -53.882812 33.375 -54 C 32.070312 -54.125 30.773438 -54.1875 29.484375 -54.1875 Z M 37.796875 -58.25 C 40.398438 -58.25 42.507812 -58 44.125 -57.5 C 45.75 -57 47.003906 -56.332031 47.890625 -55.5 C 48.773438 -54.675781 49.363281 -53.71875 49.65625 -52.625 C 49.957031 -51.539062 50.109375 -50.40625 50.109375 -49.21875 C 50.109375 -47.445312 49.738281 -45.851562 49 -44.4375 C 48.257812 -43.019531 47.285156 -41.722656 46.078125 -40.546875 C 44.867188 -39.367188 43.507812 -38.289062 42 -37.3125 C 40.5 -36.34375 38.953125 -35.441406 37.359375 -34.609375 C 39.367188 -32.367188 41.171875 -30.050781 42.765625 -27.65625 C 44.359375 -25.269531 45.785156 -22.925781 47.046875 -20.625 C 48.316406 -18.320312 49.410156 -16.148438 50.328125 -14.109375 C 51.242188 -12.078125 52.023438 -10.265625 52.671875 -8.671875 C 53.203125 -7.316406 53.6875 -6.179688 54.125 -5.265625 C 54.570312 -4.347656 55.015625 -3.578125 55.453125 -2.953125 C 55.898438 -2.335938 56.40625 -1.867188 56.96875 -1.546875 C 57.53125 -1.222656 58.222656 -0.972656 59.046875 -0.796875 L 59.046875 0 L 40.015625 0 L 40.015625 -0.796875 C 41.015625 -1.035156 41.8125 -1.390625 42.40625 -1.859375 C 43 -2.328125 43.296875 -3.125 43.296875 -4.25 C 43.296875 -6.019531 42.863281 -8.039062 42 -10.3125 C 41.144531 -12.582031 40.039062 -14.925781 38.6875 -17.34375 C 37.332031 -19.769531 35.828125 -22.160156 34.171875 -24.515625 C 32.515625 -26.878906 30.921875 -29.035156 29.390625 -30.984375 L 18.59375 -27.4375 L 18.59375 -10.53125 C 18.59375 -9.238281 18.648438 -8.046875 18.765625 -6.953125 C 18.890625 -5.859375 19.140625 -4.882812 19.515625 -4.03125 C 19.898438 -3.175781 20.472656 -2.46875 21.234375 -1.90625 C 22.003906 -1.34375 23.039062 -0.972656 24.34375 -0.796875 L 24.34375 0 L 3.09375 0 L 3.09375 -0.796875 C 4.332031 -1.035156 5.335938 -1.421875 6.109375 -1.953125 C 6.878906 -2.484375 7.46875 -3.144531 7.875 -3.9375 C 8.289062 -4.738281 8.554688 -5.65625 8.671875 -6.6875 C 8.796875 -7.71875 8.859375 -8.851562 8.859375 -10.09375 L 8.859375 -47.625 C 8.859375 -48.8125 8.796875 -49.960938 8.671875 -51.078125 C 8.554688 -52.203125 8.289062 -53.207031 7.875 -54.09375 C 7.46875 -54.976562 6.894531 -55.710938 6.15625 -56.296875 C 5.414062 -56.890625 4.394531 -57.273438 3.09375 -57.453125 L 3.09375 -58.25 Z M 37.796875 -58.25 "/></g></g></g><g fill="#000000" fill-opacity="1"><g transform="translate(692.542055, 62.661441)"><g><path d="M 24.78125 -58.25 L 24.78125 -57.453125 C 23.539062 -57.273438 22.535156 -56.921875 21.765625 -56.390625 C 21.003906 -55.859375 20.414062 -55.191406 20 -54.390625 C 19.59375 -53.597656 19.328125 -52.671875 19.203125 -51.609375 C 19.085938 -50.546875 19.03125 -49.394531 19.03125 -48.15625 L 19.03125 -10.625 C 19.03125 -9.445312 19.085938 -8.296875 19.203125 -7.171875 C 19.328125 -6.046875 19.582031 -5.039062 19.96875 -4.15625 C 20.351562 -3.269531 20.925781 -2.53125 21.6875 -1.9375 C 22.457031 -1.351562 23.488281 -0.972656 24.78125 -0.796875 L 24.78125 0 L 3.546875 0 L 3.546875 -0.796875 C 4.835938 -0.972656 5.851562 -1.328125 6.59375 -1.859375 C 7.332031 -2.390625 7.90625 -3.050781 8.3125 -3.84375 C 8.726562 -4.644531 8.992188 -5.5625 9.109375 -6.59375 C 9.234375 -7.625 9.296875 -8.757812 9.296875 -10 L 9.296875 -47.625 C 9.296875 -48.8125 9.234375 -49.960938 9.109375 -51.078125 C 8.992188 -52.203125 8.726562 -53.207031 8.3125 -54.09375 C 7.90625 -54.976562 7.332031 -55.710938 6.59375 -56.296875 C 5.851562 -56.890625 4.835938 -57.273438 3.546875 -57.453125 L 3.546875 -58.25 Z M 24.78125 -58.25 "/></g></g></g><g fill="#000000" fill-opacity="1"><g transform="translate(765.136622, 62.661441)"><g><path d="M 45.765625 -18.765625 C 45.765625 -20.835938 45.363281 -22.753906 44.5625 -24.515625 C 43.769531 -26.285156 42.707031 -27.910156 41.375 -29.390625 C 40.050781 -30.867188 38.5625 -32.148438 36.90625 -33.234375 C 35.257812 -34.328125 33.609375 -35.226562 31.953125 -35.9375 L 18.59375 -30.890625 L 18.59375 -10.453125 C 18.59375 -9.085938 18.679688 -7.992188 18.859375 -7.171875 C 19.035156 -6.347656 19.375 -5.695312 19.875 -5.21875 C 20.375 -4.75 21.066406 -4.441406 21.953125 -4.296875 C 22.835938 -4.148438 24.019531 -4.078125 25.5 -4.078125 C 28.09375 -4.078125 30.613281 -4.3125 33.0625 -4.78125 C 35.507812 -5.25 37.675781 -6.054688 39.5625 -7.203125 C 41.457031 -8.359375 42.960938 -9.863281 44.078125 -11.71875 C 45.203125 -13.582031 45.765625 -15.929688 45.765625 -18.765625 Z M 27.96875 -54.1875 C 26.789062 -54.1875 25.800781 -54.15625 25 -54.09375 C 24.207031 -54.03125 23.488281 -53.941406 22.84375 -53.828125 C 21.957031 -53.710938 21.234375 -53.550781 20.671875 -53.34375 C 20.109375 -53.132812 19.679688 -52.78125 19.390625 -52.28125 C 19.097656 -51.78125 18.890625 -51.070312 18.765625 -50.15625 C 18.648438 -49.238281 18.59375 -48.015625 18.59375 -46.484375 L 18.59375 -35.0625 C 21.476562 -35.882812 24.175781 -36.796875 26.6875 -37.796875 C 29.195312 -38.804688 31.378906 -39.898438 33.234375 -41.078125 C 35.097656 -42.253906 36.578125 -43.503906 37.671875 -44.828125 C 38.765625 -46.160156 39.3125 -47.566406 39.3125 -49.046875 C 39.3125 -50.109375 39.015625 -50.976562 38.421875 -51.65625 C 37.828125 -52.332031 37.015625 -52.847656 35.984375 -53.203125 C 34.953125 -53.554688 33.742188 -53.804688 32.359375 -53.953125 C 30.972656 -54.109375 29.507812 -54.1875 27.96875 -54.1875 Z M 36.46875 -58.25 C 38.300781 -58.25 40.03125 -58.144531 41.65625 -57.9375 C 43.28125 -57.738281 44.695312 -57.359375 45.90625 -56.796875 C 47.113281 -56.234375 48.070312 -55.460938 48.78125 -54.484375 C 49.488281 -53.515625 49.84375 -52.265625 49.84375 -50.734375 C 49.84375 -49.492188 49.632812 -48.367188 49.21875 -47.359375 C 48.8125 -46.359375 48.101562 -45.367188 47.09375 -44.390625 C 46.09375 -43.421875 44.734375 -42.40625 43.015625 -41.34375 C 41.304688 -40.28125 39.1875 -39.070312 36.65625 -37.71875 C 39.425781 -36.769531 41.988281 -35.644531 44.34375 -34.34375 C 46.707031 -33.050781 48.742188 -31.5625 50.453125 -29.875 C 52.171875 -28.195312 53.5 -26.320312 54.4375 -24.25 C 55.382812 -22.1875 55.859375 -19.945312 55.859375 -17.53125 C 55.859375 -14.050781 55.132812 -11.1875 53.6875 -8.9375 C 52.25 -6.695312 50.210938 -4.910156 47.578125 -3.578125 C 44.953125 -2.253906 41.820312 -1.328125 38.1875 -0.796875 C 34.5625 -0.265625 30.566406 0 26.203125 0 L 3.09375 0 L 3.09375 -0.796875 C 4.394531 -0.972656 5.425781 -1.34375 6.1875 -1.90625 C 6.957031 -2.46875 7.535156 -3.175781 7.921875 -4.03125 C 8.304688 -4.882812 8.554688 -5.828125 8.671875 -6.859375 C 8.796875 -7.890625 8.859375 -8.96875 8.859375 -10.09375 L 8.859375 -47.625 C 8.859375 -48.8125 8.796875 -49.945312 8.671875 -51.03125 C 8.554688 -52.125 8.289062 -53.113281 7.875 -54 C 7.46875 -54.882812 6.894531 -55.632812 6.15625 -56.25 C 5.414062 -56.875 4.394531 -57.273438 3.09375 -57.453125 L 3.09375 -58.25 Z M 36.46875 -58.25 "/></g></g></g><g fill="#000000" fill-opacity="1"><g transform="translate(867.831334, 62.661441)"><g><path d="M 25.5 -58.25 L 25.5 -57.453125 C 23.90625 -57.335938 22.632812 -57.101562 21.6875 -56.75 C 20.75 -56.394531 20.015625 -55.757812 19.484375 -54.84375 C 18.953125 -53.925781 18.582031 -52.65625 18.375 -51.03125 C 18.164062 -49.414062 18.003906 -47.28125 17.890625 -44.625 L 16.734375 -22.21875 C 16.671875 -21.6875 16.640625 -21.035156 16.640625 -20.265625 C 16.640625 -19.503906 16.640625 -18.859375 16.640625 -18.328125 C 16.640625 -15.492188 16.992188 -13.207031 17.703125 -11.46875 C 18.410156 -9.726562 19.472656 -8.265625 20.890625 -7.078125 C 22.191406 -6.078125 23.785156 -5.28125 25.671875 -4.6875 C 27.554688 -4.101562 29.445312 -3.8125 31.34375 -3.8125 C 32.9375 -3.8125 34.601562 -4.015625 36.34375 -4.421875 C 38.082031 -4.835938 39.835938 -5.546875 41.609375 -6.546875 C 43.378906 -7.554688 44.820312 -8.988281 45.9375 -10.84375 C 47.0625 -12.707031 47.625 -15.289062 47.625 -18.59375 C 47.625 -19.238281 47.625 -19.84375 47.625 -20.40625 C 47.625 -20.96875 47.597656 -21.71875 47.546875 -22.65625 L 46.5625 -45.234375 C 46.445312 -47.773438 46.269531 -49.828125 46.03125 -51.390625 C 45.800781 -52.953125 45.390625 -54.175781 44.796875 -55.0625 C 44.203125 -55.945312 43.414062 -56.550781 42.4375 -56.875 C 41.46875 -57.207031 40.1875 -57.398438 38.59375 -57.453125 L 38.59375 -58.25 L 57.453125 -58.25 L 57.453125 -57.453125 L 57.015625 -57.375 C 56.128906 -57.132812 55.375 -56.878906 54.75 -56.609375 C 54.132812 -56.347656 53.632812 -55.921875 53.25 -55.328125 C 52.863281 -54.742188 52.597656 -53.929688 52.453125 -52.890625 C 52.304688 -51.859375 52.234375 -50.457031 52.234375 -48.6875 C 52.234375 -47.925781 52.234375 -47.175781 52.234375 -46.4375 C 52.234375 -45.695312 52.265625 -44.941406 52.328125 -44.171875 L 53.296875 -19.390625 C 53.296875 -16.023438 52.867188 -13.207031 52.015625 -10.9375 C 51.160156 -8.664062 49.875 -6.734375 48.15625 -5.140625 C 46.800781 -3.898438 45.367188 -2.878906 43.859375 -2.078125 C 42.359375 -1.285156 40.835938 -0.632812 39.296875 -0.125 C 37.765625 0.375 36.234375 0.710938 34.703125 0.890625 C 33.171875 1.066406 31.722656 1.15625 30.359375 1.15625 C 29.117188 1.15625 27.734375 1.078125 26.203125 0.921875 C 24.671875 0.773438 23.125 0.523438 21.5625 0.171875 C 20 -0.179688 18.507812 -0.625 17.09375 -1.15625 C 15.675781 -1.6875 14.460938 -2.332031 13.453125 -3.09375 C 11.390625 -4.632812 9.8125 -6.40625 8.71875 -8.40625 C 7.625 -10.414062 7.078125 -12.925781 7.078125 -15.9375 C 7.078125 -17.113281 7.09375 -18.585938 7.125 -20.359375 C 7.15625 -22.128906 7.226562 -23.84375 7.34375 -25.5 L 8.328125 -44.703125 C 8.378906 -45.359375 8.40625 -46.023438 8.40625 -46.703125 C 8.40625 -47.378906 8.40625 -48.039062 8.40625 -48.6875 C 8.40625 -50.457031 8.316406 -51.875 8.140625 -52.9375 C 7.960938 -54 7.664062 -54.835938 7.25 -55.453125 C 6.84375 -56.078125 6.285156 -56.519531 5.578125 -56.78125 C 4.867188 -57.050781 3.953125 -57.273438 2.828125 -57.453125 L 2.828125 -58.25 Z M 25.5 -58.25 "/></g></g></g><g fill="#000000" fill-opacity="1"><g transform="translate(972.296685, 62.661441)"><g><path d="M 3.359375 -59.40625 C 3.421875 -59.34375 3.507812 -59.253906 3.625 -59.140625 C 3.75 -59.023438 3.941406 -58.890625 4.203125 -58.734375 C 4.472656 -58.585938 4.882812 -58.46875 5.4375 -58.375 C 6 -58.289062 6.785156 -58.25 7.796875 -58.25 L 43.203125 -58.25 C 44.085938 -58.25 44.796875 -58.28125 45.328125 -58.34375 C 45.859375 -58.40625 46.285156 -58.492188 46.609375 -58.609375 C 46.929688 -58.722656 47.179688 -58.835938 47.359375 -58.953125 C 47.535156 -59.078125 47.6875 -59.226562 47.8125 -59.40625 L 52.140625 -41.875 L 51.34375 -41.609375 C 49.632812 -45.859375 47.113281 -48.925781 43.78125 -50.8125 C 40.445312 -52.707031 36.003906 -53.65625 30.453125 -53.65625 L 30.453125 -10.453125 C 30.453125 -7.617188 30.789062 -5.328125 31.46875 -3.578125 C 32.144531 -1.835938 33.722656 -0.910156 36.203125 -0.796875 L 36.203125 0 L 14.96875 0 L 14.96875 -0.796875 C 16.207031 -0.859375 17.207031 -1.109375 17.96875 -1.546875 C 18.738281 -1.992188 19.328125 -2.613281 19.734375 -3.40625 C 20.148438 -4.207031 20.414062 -5.148438 20.53125 -6.234375 C 20.65625 -7.328125 20.71875 -8.554688 20.71875 -9.921875 L 20.71875 -53.65625 C 15.519531 -53.65625 11.164062 -52.753906 7.65625 -50.953125 C 4.144531 -49.148438 1.535156 -46.035156 -0.171875 -41.609375 L -0.96875 -41.875 Z M 3.359375 -59.40625 "/></g></g></g><g fill="#000000" fill-opacity="1"><g transform="translate(1067.909037, 62.661441)"><g><path d="M 24.78125 -58.25 L 24.78125 -57.453125 C 23.539062 -57.273438 22.535156 -56.921875 21.765625 -56.390625 C 21.003906 -55.859375 20.414062 -55.191406 20 -54.390625 C 19.59375 -53.597656 19.328125 -52.671875 19.203125 -51.609375 C 19.085938 -50.546875 19.03125 -49.394531 19.03125 -48.15625 L 19.03125 -10.625 C 19.03125 -9.445312 19.085938 -8.296875 19.203125 -7.171875 C 19.328125 -6.046875 19.582031 -5.039062 19.96875 -4.15625 C 20.351562 -3.269531 20.925781 -2.53125 21.6875 -1.9375 C 22.457031 -1.351562 23.488281 -0.972656 24.78125 -0.796875 L 24.78125 0 L 3.546875 0 L 3.546875 -0.796875 C 4.835938 -0.972656 5.851562 -1.328125 6.59375 -1.859375 C 7.332031 -2.390625 7.90625 -3.050781 8.3125 -3.84375 C 8.726562 -4.644531 8.992188 -5.5625 9.109375 -6.59375 C 9.234375 -7.625 9.296875 -8.757812 9.296875 -10 L 9.296875 -47.625 C 9.296875 -48.8125 9.234375 -49.960938 9.109375 -51.078125 C 8.992188 -52.203125 8.726562 -53.207031 8.3125 -54.09375 C 7.90625 -54.976562 7.332031 -55.710938 6.59375 -56.296875 C 5.851562 -56.890625 4.835938 -57.273438 3.546875 -57.453125 L 3.546875 -58.25 Z M 24.78125 -58.25 "/></g></g></g><g fill="#000000" fill-opacity="1"><g transform="translate(1140.503603, 62.661441)"><g><path d="M 33.015625 -54.796875 C 29.828125 -54.796875 27.066406 -54.128906 24.734375 -52.796875 C 22.410156 -51.472656 20.492188 -49.734375 18.984375 -47.578125 C 17.484375 -45.429688 16.378906 -43.015625 15.671875 -40.328125 C 14.960938 -37.640625 14.609375 -34.910156 14.609375 -32.140625 C 14.609375 -28.828125 15.09375 -25.472656 16.0625 -22.078125 C 17.039062 -18.691406 18.488281 -15.609375 20.40625 -12.828125 C 22.320312 -10.054688 24.679688 -7.800781 27.484375 -6.0625 C 30.285156 -4.320312 33.546875 -3.453125 37.265625 -3.453125 C 40.335938 -3.453125 43.050781 -4.070312 45.40625 -5.3125 C 47.769531 -6.550781 49.75 -8.203125 51.34375 -10.265625 C 52.9375 -12.335938 54.128906 -14.703125 54.921875 -17.359375 C 55.722656 -20.015625 56.125 -22.785156 56.125 -25.671875 C 56.125 -29.566406 55.519531 -33.269531 54.3125 -36.78125 C 53.101562 -40.289062 51.453125 -43.390625 49.359375 -46.078125 C 47.265625 -48.765625 44.8125 -50.890625 42 -52.453125 C 39.195312 -54.015625 36.203125 -54.796875 33.015625 -54.796875 Z M 3.984375 -28.953125 C 3.984375 -33.378906 4.796875 -37.453125 6.421875 -41.171875 C 8.046875 -44.890625 10.257812 -48.101562 13.0625 -50.8125 C 15.863281 -53.53125 19.148438 -55.640625 22.921875 -57.140625 C 26.703125 -58.648438 30.773438 -59.40625 35.140625 -59.40625 C 39.628906 -59.40625 43.804688 -58.632812 47.671875 -57.09375 C 51.535156 -55.5625 54.882812 -53.421875 57.71875 -50.671875 C 60.550781 -47.929688 62.765625 -44.65625 64.359375 -40.84375 C 65.953125 -37.039062 66.75 -32.867188 66.75 -28.328125 C 66.75 -24.023438 65.894531 -20.070312 64.1875 -16.46875 C 62.476562 -12.863281 60.160156 -9.75 57.234375 -7.125 C 54.316406 -4.5 50.953125 -2.460938 47.140625 -1.015625 C 43.335938 0.429688 39.367188 1.15625 35.234375 1.15625 C 30.097656 1.15625 25.582031 0.253906 21.6875 -1.546875 C 17.789062 -3.347656 14.53125 -5.691406 11.90625 -8.578125 C 9.28125 -11.472656 7.300781 -14.707031 5.96875 -18.28125 C 4.644531 -21.851562 3.984375 -25.410156 3.984375 -28.953125 Z M 3.984375 -28.953125 "/></g></g></g><g fill="#000000" fill-opacity="1"><g transform="translate(1255.592527, 62.661441)"><g><path d="M 26.375 -58.25 L 26.375 -57.453125 C 25.132812 -57.335938 24.515625 -56.984375 24.515625 -56.390625 C 24.515625 -56.273438 24.632812 -55.953125 24.875 -55.421875 C 25.113281 -54.890625 25.878906 -54.09375 27.171875 -53.03125 L 47.453125 -36.125 L 47.453125 -47.625 C 47.453125 -48.925781 47.378906 -50.148438 47.234375 -51.296875 C 47.085938 -52.453125 46.804688 -53.457031 46.390625 -54.3125 C 45.972656 -55.164062 45.378906 -55.875 44.609375 -56.4375 C 43.847656 -57 42.816406 -57.335938 41.515625 -57.453125 L 41.515625 -58.25 L 58.96875 -58.25 L 58.96875 -57.453125 C 57.664062 -57.273438 56.628906 -56.90625 55.859375 -56.34375 C 55.097656 -55.789062 54.523438 -55.082031 54.140625 -54.21875 C 53.753906 -53.363281 53.5 -52.421875 53.375 -51.390625 C 53.257812 -50.359375 53.203125 -49.28125 53.203125 -48.15625 L 53.203125 -10.625 C 53.203125 -9.320312 53.257812 -8.125 53.375 -7.03125 C 53.5 -5.945312 53.765625 -4.972656 54.171875 -4.109375 C 54.585938 -3.253906 55.179688 -2.53125 55.953125 -1.9375 C 56.722656 -1.351562 57.726562 -0.972656 58.96875 -0.796875 L 58.96875 0 L 41.515625 0 L 41.515625 -0.796875 C 42.753906 -0.972656 43.769531 -1.3125 44.5625 -1.8125 C 45.363281 -2.3125 45.972656 -2.957031 46.390625 -3.75 C 46.804688 -4.550781 47.085938 -5.484375 47.234375 -6.546875 C 47.378906 -7.609375 47.453125 -8.820312 47.453125 -10.1875 L 47.453125 -19.65625 C 47.453125 -20.539062 47.40625 -21.289062 47.3125 -21.90625 C 47.226562 -22.53125 47.007812 -23.132812 46.65625 -23.71875 C 46.300781 -24.3125 45.796875 -24.929688 45.140625 -25.578125 C 44.492188 -26.234375 43.640625 -27.003906 42.578125 -27.890625 L 14.609375 -51.171875 L 14.609375 -10.625 C 14.609375 -9.382812 14.664062 -8.1875 14.78125 -7.03125 C 14.90625 -5.882812 15.171875 -4.867188 15.578125 -3.984375 C 15.992188 -3.097656 16.582031 -2.375 17.34375 -1.8125 C 18.113281 -1.25 19.117188 -0.910156 20.359375 -0.796875 L 20.359375 0 L 3.09375 0 L 3.09375 -0.796875 C 4.394531 -0.972656 5.425781 -1.34375 6.1875 -1.90625 C 6.957031 -2.46875 7.535156 -3.175781 7.921875 -4.03125 C 8.304688 -4.882812 8.554688 -5.828125 8.671875 -6.859375 C 8.796875 -7.890625 8.859375 -8.96875 8.859375 -10.09375 L 8.859375 -47.625 C 8.859375 -48.8125 8.796875 -49.945312 8.671875 -51.03125 C 8.554688 -52.125 8.289062 -53.113281 7.875 -54 C 7.46875 -54.882812 6.894531 -55.632812 6.15625 -56.25 C 5.414062 -56.875 4.394531 -57.273438 3.09375 -57.453125 L 3.09375 -58.25 Z M 26.375 -58.25 "/></g></g></g></g></g></svg>